<?xml version="1.0" encoding="UTF-8" standalone="no"?>
<!-- Created with Inkscape (http://www.inkscape.org/) -->

<svg
   width="41.431747mm"
   height="16.095493mm"
   viewBox="0 0 41.431747 16.095493"
   version="1.1"
   id="svg1"
   xmlns="http://www.w3.org/2000/svg"
   xmlns:svg="http://www.w3.org/2000/svg">
  <defs
     id="defs1" />
  <g
     id="layer1"
     transform="translate(-58.029841,-98.904509)">
    <path
       style="font-size:16.9333px;font-family:'JetBrains Mono';-inkscape-font-specification:'JetBrains Mono';stroke-width:0.243021"
       d="m 91.536841,114.99951 v -7.85716 h 1.337724 v 0.94286 h 0.304797 l -0.237057,0.34286 c 0,-0.43809 0.13547,-0.78571 0.406397,-1.04285 0.28222,-0.25715 0.660397,-0.38571 1.134524,-0.38571 0.519287,0 0.920034,0.16189 1.202254,0.4857 0.282217,0.32381 0.423327,0.78096 0.423327,1.37143 l -0.457187,-0.77143 h 0.711184 l -0.321727,0.34286 c 0,-0.43809 0.14111,-0.78571 0.423327,-1.04285 0.29351,-0.25715 0.677337,-0.38571 1.151464,-0.38571 0.587017,0 1.038564,0.1857 1.354651,0.55714 0.32738,0.37143 0.49107,0.86189 0.49107,1.47143 v 5.97143 h -1.405464 v -5.98573 c 0,-0.3238 -0.0847,-0.57618 -0.253997,-0.75714 -0.15804,-0.18095 -0.3951,-0.27142 -0.711187,-0.27142 -0.304797,0 -0.547507,0.0905 -0.728137,0.27142 -0.169327,0.17143 -0.253997,0.41905 -0.253997,0.74286 v 6.00001 h -1.219184 v -5.98573 c 0,-0.33333 -0.0903,-0.58571 -0.270937,-0.75714 -0.16933,-0.18095 -0.41204,-0.27142 -0.728127,-0.27142 -0.316087,0 -0.553147,0.0905 -0.711197,0.27142 -0.158037,0.17143 -0.237057,0.41905 -0.237057,0.74286 v 6.00001 z"
       id="path4" />
    <path
       style="font-size:16.9333px;font-family:'JetBrains Mono';-inkscape-font-specification:'JetBrains Mono';fill:#061260;fill-opacity:1;stroke:#091987;stroke-width:0.354614;stroke-dasharray:none;stroke-opacity:1"
       d="m 58.207148,114.82269 v -1.30811 h 2.527925 v -9.02916 h -2.527925 v -1.30811 h 6.616719 v 1.30811 h -2.527926 v 9.02916 h 2.527926 v 1.30811 z"
       id="text1" />
    <path
       style="font-size:16.9333px;font-family:'JetBrains Mono';-inkscape-font-specification:'JetBrains Mono';stroke-width:0.241729"
       d="m 86.6915,114.99951 c -0.745065,0 -1.38853,-0.11779 -1.930396,-0.35336 -0.541865,-0.23557 -0.965198,-0.57479 -1.269997,-1.01767 -0.293511,-0.45229 -0.440266,-0.98468 -0.440266,-1.59717 v -2.0636 c 0,-0.62192 0.146755,-1.15431 0.440266,-1.59718 0.304799,-0.44287 0.728132,-0.7821 1.269997,-1.01767 0.541866,-0.23557 1.185331,-0.35335 1.930396,-0.35335 0.745065,0 1.388531,0.11778 1.930397,0.35335 0.541865,0.23557 0.959553,0.5748 1.253064,1.01767 0.304799,0.44287 0.457199,0.97056 0.457199,1.58304 v 2.07774 c 0,0.61249 -0.1524,1.14488 -0.457199,1.59717 -0.293511,0.44288 -0.711199,0.7821 -1.253064,1.01767 -0.541866,0.23557 -1.185332,0.35336 -1.930397,0.35336 z m 0,-1.13074 c 0.666043,0 1.185331,-0.15548 1.557864,-0.46643 0.372533,-0.31095 0.558799,-0.76796 0.558799,-1.37103 v -2.0636 c 0,-0.60307 -0.186266,-1.06008 -0.558799,-1.37103 -0.372533,-0.31095 -0.891821,-0.46643 -1.557864,-0.46643 -0.654754,0 -1.174042,0.15548 -1.557863,0.46643 -0.372533,0.31095 -0.558799,0.76796 -0.558799,1.37103 v 2.0636 c 0,0.60307 0.186266,1.06008 0.558799,1.37103 0.383821,0.31095 0.903109,0.46643 1.557863,0.46643 z"
       id="path3" />
    <path
       style="font-size:16.9333px;font-family:'JetBrains Mono';-inkscape-font-specification:'JetBrains Mono';fill:#061260;fill-opacity:1;stroke:#091987;stroke-width:0.257983;stroke-opacity:1"
       d="m 74.603832,114.87101 v -11.74202 h 3.203182 c 0.802207,0 1.491428,0.14478 2.067662,0.43431 0.587532,0.28954 1.039481,0.69701 1.355844,1.22245 0.327662,0.52544 0.491494,1.14739 0.491494,1.86586 v 4.68071 c 0,0.71846 -0.163832,1.34577 -0.491494,1.88194 -0.316363,0.52544 -0.768312,0.93293 -1.355844,1.22246 -0.576234,0.28953 -1.265455,0.43429 -2.067662,0.43429 z m 1.525325,-1.2868 h 1.677857 c 0.745714,0 1.327597,-0.19837 1.74565,-0.59514 0.42935,-0.39677 0.644025,-0.94901 0.644025,-1.65675 v -4.68071 c 0,-0.69701 -0.214675,-1.24391 -0.644025,-1.64067 -0.418053,-0.39677 -0.999936,-0.59515 -1.74565,-0.59515 h -1.677857 z"
       id="path2" />
    <path
       style="font-size:16.9333px;font-family:'JetBrains Mono';-inkscape-font-specification:'JetBrains Mono';stroke-width:0.24302"
       d="m 66.199841,115 v -7.85715 h 1.523997 v 1.5 h 0.321733 l -0.321733,0.30001 c 0,-0.61906 0.220133,-1.09524 0.660399,-1.42858 C 68.824502,107.17143 69.434101,107 70.213033,107 c 0.936976,0 1.682041,0.24286 2.235196,0.72857 0.553154,0.48571 0.829731,1.14762 0.829731,1.98572 V 115 h -1.523997 v -5.14286 c 0,-0.56191 -0.180622,-0.99048 -0.541865,-1.28572 -0.349955,-0.30476 -0.829732,-0.45713 -1.439331,-0.45713 -0.632177,0 -1.134531,0.1619 -1.507064,0.48571 -0.361243,0.32381 -0.541865,0.79047 -0.541865,1.39999 V 115 Z"
       id="path1" />
    <g
       id="Page-1"
       stroke="none"
       stroke-width="1"
       fill="none"
       fill-rule="evenodd"
       transform="matrix(0.24291984,0.11659833,-0.12657465,0.17337489,60.485148,98.177257)"
       style="fill:#990000;fill-opacity:1">
      <g
         id="Dribbble-Light-Preview"
         transform="translate(-381,-8039)"
         fill="#000000"
         style="fill:#990000;fill-opacity:1">
        <g
           id="icons"
           transform="translate(56,160)"
           style="fill:#990000;fill-opacity:1">
          <path
             d="m 336.62277,7895.0145 c -3.60006,0.3068 -6.69369,-2.1164 -7.44533,-5.4309 -0.73162,-3.2263 1.49828,-6.5549 4.80009,-6.5739 2.49111,-0.014 4.56288,1.7946 4.96422,4.1717 0.30325,1.8006 -0.79368,3.6413 -2.60722,3.8318 -1.80454,0.1895 -3.32783,-1.2221 -3.32783,-2.9906 0,-0.5535 0.44838,-1.0026 1.00085,-1.0026 0.55247,0 1.00085,0.4491 1.00085,1.0026 0,0.5534 0.44838,1.0025 1.00085,1.0025 0.55247,0 1.00085,-0.4491 1.00085,-1.0025 0,-1.7686 -1.52329,-3.1802 -3.32783,-2.9907 -1.81354,0.1915 -2.91047,2.0312 -2.60721,3.8318 0.40134,2.3781 2.4731,4.1858 4.96422,4.1717 3.30181,-0.019 5.5317,-3.3476 4.80008,-6.5739 -0.89776,-3.9621 -5.14337,-6.65 -9.59916,-4.9246 -2.27594,0.8803 -3.89932,2.9907 -4.17755,5.4189 -0.59051,5.1593 3.16769,9.5766 8.07586,10.0488 0.49943,0.048 0.87074,0.4863 0.87074,0.9896 0,0.5975 -0.52044,1.0607 -1.11495,1.0005 -5.50568,-0.5544 -9.81434,-5.1712 -9.89341,-10.8137 -0.0601,-4.267 2.91448,-8.1199 7.08603,-8.9821 5.39058,-1.1149 10.17865,2.5977 10.84822,7.6166 0.53446,4.0052 -2.29295,7.8561 -6.31237,8.199"
             id="-spiral-[#30]"
             style="fill:#990000;fill-opacity:1" />
        </g>
      </g>
    </g>
  </g>
</svg>
